<svg xmlns="http://www.w3.org/2000/svg" xmlns:xlink="http://www.w3.org/1999/xlink" viewBox="0 0 177.64 157.43"><defs><style>.cls-1{fill:none;}.cls-2{fill:#fff;}.cls-3{clip-path:url(#clip-path);}.cls-4{fill:#ffefbf;}.cls-5{clip-path:url(#clip-path-2);}.cls-6{fill:#fdbc00;}</style><clipPath id="clip-path" transform="translate(-2.97 -23.12)"><rect class="cls-1" x="35.28" y="50.88" width="128.07" height="147.95" transform="translate(-60.08 131.55) rotate(-53.91)"/></clipPath><clipPath id="clip-path-2" transform="translate(-2.97 -23.12)"><rect class="cls-1" x="54.97" y="51.8" width="65.05" height="65.05"/></clipPath></defs><g id="Layer_1" data-name="Layer 1"><circle class="cls-2" cx="83.18" cy="62" r="62"/><g class="cls-3"><path class="cls-2" d="M155.81,124.24c-3.71,13.09-13.26,24.85-25.69,32.56s-27.47,11.33-42.72,10.91-30.51-4.5-44.75-11S15.21,141.33,3,131.43c11.54,10.85,23.94,20.86,38,28.92,14,7.79,29.54,13.52,45.56,15.23a97,97,0,0,0,12.46.58,96.12,96.12,0,0,0,12.48-1.11,98.23,98.23,0,0,0,12.34-2.92,90.73,90.73,0,0,0,11.88-4.95,91.12,91.12,0,0,0,11-6.79,91.79,91.79,0,0,0,9.74-8.7,95.58,95.58,0,0,0,8.07-10.4,61.18,61.18,0,0,0,6.13-12.07Z" transform="translate(-2.97 -23.12)"/><path class="cls-2" d="M180.61,138.91,172.52,99,142,125.84Z" transform="translate(-2.97 -23.12)"/><path class="cls-4" d="M158.05,155.52a93.47,93.47,0,0,1-16.15,11.81,90.06,90.06,0,0,1-18.24,8.34,62.89,62.89,0,0,1-9.82,2.8c-1.77.42-3.41.68-5.06.94s-3.29.51-5.06.93c1.85.13,3.54.15,5.23.16a32,32,0,0,0,5.19-.11l5.1-.65c.82-.13,1.76-.42,2.58-.55l2.59-.54a52.17,52.17,0,0,0,10.06-3.13,51.37,51.37,0,0,0,4.84-2.3l2.34-1.21,2.18-1.33a99.34,99.34,0,0,0,8.76-6l4-3.43a39.42,39.42,0,0,0,3.65-3.66,62.11,62.11,0,0,0,11.63-17.29A141.75,141.75,0,0,1,158.05,155.52Z" transform="translate(-2.97 -23.12)"/><path class="cls-4" d="M28.88,144.25A105.57,105.57,0,0,0,47.1,154.61a79.19,79.19,0,0,0,20.09,6.14l5.31.71c1.69,0,3.54.15,5.23.17H80.4c.83-.13,1.81-.14,2.63-.27,1.81-.14,3.61-.28,5.26-.54-7-.73-13.73-1.51-20.2-3.3a48,48,0,0,1-4.86-1.35c-1.77-.57-3.39-1-4.89-1.63l-4.78-1.78-4.66-1.94a141.12,141.12,0,0,1-18.21-9.38,176.88,176.88,0,0,1-17.2-11.09A91.18,91.18,0,0,0,28.88,144.25Z" transform="translate(-2.97 -23.12)"/></g></g><g id="Layer_4" data-name="Layer 4"><g class="cls-5"><path class="cls-6" d="M117,110.88h-8.64V72.09a1,1,0,1,0-1.9,0v2.19h-38V64.89h11v1.19A1.47,1.47,0,0,0,81,67.54h3v3A1.47,1.47,0,0,0,85.46,72h4.07A1.47,1.47,0,0,0,91,70.52v-3h3a1.46,1.46,0,0,0,1.46-1.46V64.89h11.06V68a.95.95,0,0,0,1.9,0V63.94a1,1,0,0,0-1-1h-6.8V52.76a1,1,0,0,0-1-1H83.27a1,1,0,0,0,0,1.91H98.74V63H95.43V62A1.46,1.46,0,0,0,94,60.55H91v-3a1.47,1.47,0,0,0-1.46-1.46H85.46A1.47,1.47,0,0,0,84,57.56v3H81A1.47,1.47,0,0,0,79.55,62v1h-3.3V53.71h3.1a1,1,0,0,0,0-1.91h-4a1,1,0,0,0-1,1V63H67.55a1,1,0,0,0-1,1v46.94H58a3,3,0,0,0,0,6H67.1a1,1,0,0,0,0-1.91H58a1.08,1.08,0,0,1,0-2.16H117a1.08,1.08,0,0,1,0,2.16H71.26a1,1,0,0,0,0,1.91H117a3,3,0,0,0,0-6ZM81.46,62.46h3A1.47,1.47,0,0,0,85.91,61V58h3.17v3a1.47,1.47,0,0,0,1.46,1.47h3v3.17h-3a1.47,1.47,0,0,0-1.46,1.46v3H85.91v-3a1.47,1.47,0,0,0-1.47-1.46h-3Zm25,13.73v1.9h-38v-1.9ZM76.88,110.88v-5.71H79.3v5.71Zm16.9-5.71v5.71H81.2v-5.71Zm1.91,5.71v-5.71H98.1v5.71Zm4.32,0v-6.67a1,1,0,0,0-1-.95H75.93a1,1,0,0,0-1,.95v6.67H68.5V80h38v30.88Z" transform="translate(-2.97 -23.12)"/><path class="cls-6" d="M79.11,81.6H72.25a1,1,0,0,0-1,1V88.9a1,1,0,0,0,1,1h6.86a1,1,0,0,0,1-1V82.55A1,1,0,0,0,79.11,81.6Zm-1,6.35h-5V83.5h5Z" transform="translate(-2.97 -23.12)"/><path class="cls-6" d="M102.74,81.6H95.88a.94.94,0,0,0-.95,1V88.9a1,1,0,0,0,.95,1h6.86a1,1,0,0,0,1-1V82.55A.94.94,0,0,0,102.74,81.6ZM101.79,88h-5V83.5h5Z" transform="translate(-2.97 -23.12)"/><path class="cls-6" d="M90.92,81.6H84.06a1,1,0,0,0-1,1V88.9a1,1,0,0,0,1,1h6.86a1,1,0,0,0,1-1V82.55A1,1,0,0,0,90.92,81.6ZM90,88H85V83.5h5Z" transform="translate(-2.97 -23.12)"/><path class="cls-6" d="M79.11,92.65H72.25a1,1,0,0,0-1,.95V100a1,1,0,0,0,1,1h6.86a1,1,0,0,0,1-1V93.6A1,1,0,0,0,79.11,92.65Zm-1,6.35h-5V94.56h5Z" transform="translate(-2.97 -23.12)"/><path class="cls-6" d="M102.74,92.65H95.88a1,1,0,0,0-.95.95V100a1,1,0,0,0,.95,1h6.86a1,1,0,0,0,1-1V93.6A1,1,0,0,0,102.74,92.65ZM101.79,99h-5V94.56h5Z" transform="translate(-2.97 -23.12)"/><path class="cls-6" d="M90.92,92.65H84.06a1,1,0,0,0-1,.95V100a1,1,0,0,0,1,1h6.86a1,1,0,0,0,1-1V93.6A1,1,0,0,0,90.92,92.65ZM90,99H85V94.56h5Z" transform="translate(-2.97 -23.12)"/></g></g></svg>