<svg xmlns="http://www.w3.org/2000/svg" xmlns:xlink="http://www.w3.org/1999/xlink" viewBox="0 0 177.64 158.64"><defs><style>.cls-1{fill:none;}.cls-2{fill:#fff;}.cls-3{clip-path:url(#clip-path);}.cls-4{fill:#ffefbf;}.cls-5{clip-path:url(#clip-path-2);}.cls-6{fill:#fdbc00;}</style><clipPath id="clip-path" transform="translate(-5.69 -10.27)"><rect class="cls-1" x="28.06" y="1.93" width="147.95" height="128.07" transform="translate(-19.27 72.77) rotate(-36.09)"/></clipPath><clipPath id="clip-path-2" transform="translate(-5.69 -10.27)"><rect class="cls-1" x="55.13" y="72.93" width="68" height="68"/></clipPath></defs><g id="Layer_1" data-name="Layer 1"><circle class="cls-2" cx="82.5" cy="96.64" r="62"/><g class="cls-3"><path class="cls-2" d="M173.38,61.6a61.14,61.14,0,0,0-6.12-12.07,98.14,98.14,0,0,0-8.07-10.4,92.88,92.88,0,0,0-9.75-8.7,90.35,90.35,0,0,0-11-6.79,90.17,90.17,0,0,0-11.88-4.95,96.77,96.77,0,0,0-12.33-2.92,92.6,92.6,0,0,0-25-.53c-16,1.71-31.54,7.44-45.56,15.22-14.06,8.07-26.45,18.08-38,28.93,12.24-9.9,25.45-18.8,39.68-25.29s29.5-10.57,44.75-11,30.3,3.2,42.73,10.91,22,19.47,25.69,32.56Z" transform="translate(-5.69 -10.27)"/><path class="cls-2" d="M144.73,65l30.52,26.86,8.09-39.93Z" transform="translate(-5.69 -10.27)"/><path class="cls-4" d="M174.55,50.53a61.9,61.9,0,0,0-11.63-17.29,40.62,40.62,0,0,0-3.64-3.66l-4-3.43a102.39,102.39,0,0,0-8.76-6l-2.19-1.33L142,17.6a55,55,0,0,0-14.9-5.43l-2.58-.54c-.83-.13-1.76-.42-2.59-.55l-5.1-.66a33.08,33.08,0,0,0-5.18-.1c-1.69,0-3.38,0-5.23.16,1.76.42,3.41.68,5,.93s3.3.52,5.06.94a63.32,63.32,0,0,1,9.83,2.8,90.23,90.23,0,0,1,18.23,8.34A93.47,93.47,0,0,1,160.77,35.3,140.7,140.7,0,0,1,174.55,50.53Z" transform="translate(-5.69 -10.27)"/><path class="cls-4" d="M16.21,60.47A176.35,176.35,0,0,1,33.42,49.38,141,141,0,0,1,51.62,40l4.66-1.94,4.78-1.78c1.5-.61,3.12-1.06,4.9-1.63a45.37,45.37,0,0,1,4.85-1.35C77.28,31.5,84,30.73,91,30c-1.64-.26-3.45-.4-5.25-.54-.83-.13-1.81-.15-2.63-.27H80.45c-1.69,0-3.53.15-5.22.16l-5.32.72A79,79,0,0,0,49.83,36.2,105.25,105.25,0,0,0,31.61,46.57,90.44,90.44,0,0,0,16.21,60.47Z" transform="translate(-5.69 -10.27)"/></g><g class="cls-5"><path class="cls-6" d="M115.13,76.93v-4h-4v4h-4v-4h-4v4h-4v-4h-4v4h-4v-4h-4v4h-4v-4h-4v4h-4v-4h-4v4h-4v-4h-4v4h-8v64h68v-64Zm-52,4v4h4v-4h4v4h4v-4h4v4h4v-4h4v4h4v-4h4v4h4v-4h4v4h4v-4h4v4h4v-4h4v8h-60v-8Zm-4,56v-44h60v44Z" transform="translate(-5.69 -10.27)"/><path class="cls-6" d="M101.15,105.62l2.83,2.83,2.83-2.83-8.49-8.49L95.49,100l2.83,2.83-2.83,2.83-2.83-2.83L77.11,118.35a6,6,0,0,0-1.18,6.83l-4.48,4.48,2.83,2.83L78.76,128a6,6,0,0,0,6.83-1.18l15.56-15.55-2.83-2.83ZM79.94,124a2,2,0,0,1,0-2.83l1.41-1.41,2.83,2.83L82.76,124A2,2,0,0,1,79.94,124ZM87,119.76l-2.83-2.83,8.48-8.48,2.83,2.83Z" transform="translate(-5.69 -10.27)"/><path class="cls-6" d="M63.13,98.93h4v4h-4Z" transform="translate(-5.69 -10.27)"/><path class="cls-6" d="M71.13,98.93h4v4h-4Z" transform="translate(-5.69 -10.27)"/><path class="cls-6" d="M79.13,98.93h4v4h-4Z" transform="translate(-5.69 -10.27)"/><path class="cls-6" d="M63.13,106.93h4v4h-4Z" transform="translate(-5.69 -10.27)"/><path class="cls-6" d="M71.13,106.93h4v4h-4Z" transform="translate(-5.69 -10.27)"/><path class="cls-6" d="M63.13,114.93h4v4h-4Z" transform="translate(-5.69 -10.27)"/><path class="cls-6" d="M111.13,128.93h4v4h-4Z" transform="translate(-5.69 -10.27)"/><path class="cls-6" d="M103.13,128.93h4v4h-4Z" transform="translate(-5.69 -10.27)"/><path class="cls-6" d="M95.13,128.93h4v4h-4Z" transform="translate(-5.69 -10.27)"/><path class="cls-6" d="M111.13,120.93h4v4h-4Z" transform="translate(-5.69 -10.27)"/><path class="cls-6" d="M103.13,120.93h4v4h-4Z" transform="translate(-5.69 -10.27)"/><path class="cls-6" d="M111.13,112.93h4v4h-4Z" transform="translate(-5.69 -10.27)"/></g></g></svg>