<svg xmlns="http://www.w3.org/2000/svg" xmlns:xlink="http://www.w3.org/1999/xlink" viewBox="0 0 177.64 158.64"><defs><style>.cls-1{fill:none;}.cls-2{fill:#fff;}.cls-3{fill:#fdbc00;}.cls-4{clip-path:url(#clip-path);}.cls-5{fill:#ffefbf;}</style><clipPath id="clip-path" transform="translate(-5.69 -10.27)"><rect class="cls-1" x="28.06" y="1.93" width="147.95" height="128.07" transform="translate(-19.27 72.77) rotate(-36.09)"/></clipPath></defs><g id="Layer_1" data-name="Layer 1"><circle class="cls-2" cx="82.5" cy="96.64" r="62"/><path class="cls-3" d="M60.57,125V85.66h46.75V110.1h2.12V79.29A4.23,4.23,0,0,0,105.19,75H62.69a4.25,4.25,0,0,0-4.25,4.25V125a4.25,4.25,0,0,0,4.25,4.25h25.5V127.1H62.69a2.16,2.16,0,0,1-1.5-.62A2.13,2.13,0,0,1,60.57,125Zm2.12-47.81h42.5a2.16,2.16,0,0,1,1.5.62,2.13,2.13,0,0,1,.63,1.51v4.25H60.57V79.29a2.13,2.13,0,0,1,.62-1.51A2.16,2.16,0,0,1,62.69,77.16Z" transform="translate(-5.69 -10.27)"/><path class="cls-3" d="M62.69,79.29h2.13v2.12H62.69Z" transform="translate(-5.69 -10.27)"/><path class="cls-3" d="M66.94,79.29h2.13v2.12H66.94Z" transform="translate(-5.69 -10.27)"/><path class="cls-3" d="M71.19,79.29h2.13v2.12H71.19Z" transform="translate(-5.69 -10.27)"/><path class="cls-3" d="M114.75,118.6h-3.44l-1.13-4a4.28,4.28,0,0,0-1.81-2.41,4.23,4.23,0,0,0-2.94-.62L90,114.06a3.14,3.14,0,0,0-1.38.55,3.3,3.3,0,0,0-1.44,2.52,3.36,3.36,0,0,0,.22,1.47H85a1,1,0,0,0-.59.18l-2.92,1.94h-1.8v2.13h1.8l2.92,2A1.12,1.12,0,0,0,85,125h4.88l2.58,2.59a5.67,5.67,0,0,0,1.1,3,5.78,5.78,0,0,0,2.51,1.94l1.68.67v5.66h2.13v-6.38a1,1,0,0,0-.18-.59,1.07,1.07,0,0,0-.49-.4l-2.35-.94a3.6,3.6,0,0,1-1.67-1.34,3.53,3.53,0,0,1-.62-2,1.15,1.15,0,0,0-.08-.41,1.36,1.36,0,0,0-.23-.34l-3.59-3.59a1.22,1.22,0,0,1-.33-.61,1.17,1.17,0,0,1,.07-.69,1.22,1.22,0,0,1,.44-.54,1.17,1.17,0,0,1,.66-.2h.4a1.22,1.22,0,0,1,.53.13l7.87,3.93,3.07,3.07,1.5-1.5L103.51,125h5.93v13.82h2.13V125h3.18a3.19,3.19,0,1,0,0-6.37Zm-31,3.19,1.6-1.07h3.08a3.38,3.38,0,0,0-.09,2.13h-3Zm7.78-3.19h-1a1.21,1.21,0,0,1-.83-.33,1.26,1.26,0,0,1-.4-.8,1.26,1.26,0,0,1,1-1.32l15.47-2.44a2.13,2.13,0,0,1,2.37,1.52l1,3.37h-5.59l1.37-1.38-1.5-1.5-2.88,2.88Zm9.68,4.25-4.25-2.13h14.63v2.13Zm13.56,0h-1.06v-2.13h1.06a1.07,1.07,0,0,1,.76,1.82A1.07,1.07,0,0,1,114.75,122.85Z" transform="translate(-5.69 -10.27)"/><path class="cls-3" d="M82.88,106.91v-17a1.06,1.06,0,0,0-1.06-1.06h-17a1,1,0,0,0-.75.31,1.07,1.07,0,0,0-.32.75v17a1.07,1.07,0,0,0,.32.75,1,1,0,0,0,.75.31h17a1.06,1.06,0,0,0,1.06-1.06Zm-9.56-5.31a3.22,3.22,0,0,1,2.25.93,3.18,3.18,0,0,1,.93,2.26v1.06H70.13v-1.06a3.18,3.18,0,0,1,3.19-3.19Zm-2.13-4.25a2.16,2.16,0,0,1,.36-1.18,2.15,2.15,0,0,1,2.18-.91,2.2,2.2,0,0,1,1.09.59,2,2,0,0,1,.58,1.08,2.11,2.11,0,0,1-2.08,2.54,2.13,2.13,0,0,1-1.51-.62A2.16,2.16,0,0,1,71.19,97.35Zm9.56,8.5H78.63v-1.06a5.32,5.32,0,0,0-.62-2.5,5.43,5.43,0,0,0-1.72-1.91,4.25,4.25,0,1,0-6.91-4.64,4.26,4.26,0,0,0,1,4.64,5.25,5.25,0,0,0-1.72,1.91,5.33,5.33,0,0,0-.63,2.5v1.06H65.88V91H80.75Z" transform="translate(-5.69 -10.27)"/><path class="cls-3" d="M69.07,110.1H81.82v2.12H69.07Z" transform="translate(-5.69 -10.27)"/><path class="cls-3" d="M64.82,110.1h2.12v2.12H64.82Z" transform="translate(-5.69 -10.27)"/><path class="cls-3" d="M91.38,91h12.75V93.1H91.38Z" transform="translate(-5.69 -10.27)"/><path class="cls-3" d="M87.13,95.22h17v2.13h-17Z" transform="translate(-5.69 -10.27)"/><path class="cls-3" d="M87.13,99.47h17v2.13h-17Z" transform="translate(-5.69 -10.27)"/><path class="cls-3" d="M87.13,103.72h17v2.13h-17Z" transform="translate(-5.69 -10.27)"/><path class="cls-3" d="M87.13,91h2.12V93.1H87.13Z" transform="translate(-5.69 -10.27)"/><path class="cls-3" d="M111.57,80.35h2.12V101.6h-2.12Z" transform="translate(-5.69 -10.27)"/><path class="cls-3" d="M111.57,103.72h2.12v2.13h-2.12Z" transform="translate(-5.69 -10.27)"/><path class="cls-3" d="M64.23,118.79l-1.46,3.66,2,.79L66,120.13l.66,1.32a1.72,1.72,0,0,0,.49.61,1.8,1.8,0,0,0,.7.36,1.86,1.86,0,0,0,.78,0,1.82,1.82,0,0,0,.72-.29L71.06,121l1.27,1.27a1.89,1.89,0,0,0,.6.41,2,2,0,0,0,.72.14h3.92v-2.13H73.76l-1.36-1.35a1.84,1.84,0,0,0-1.13-.53,1.86,1.86,0,0,0-1.21.3l-1.64,1.09-.8-1.58a1.84,1.84,0,0,0-.72-.77,1.89,1.89,0,0,0-1-.26,1.84,1.84,0,0,0-1,.34,1.91,1.91,0,0,0-.66.83Z" transform="translate(-5.69 -10.27)"/><g class="cls-4"><path class="cls-2" d="M173.38,61.6a61.14,61.14,0,0,0-6.12-12.07,98.14,98.14,0,0,0-8.07-10.4,92.88,92.88,0,0,0-9.75-8.7,90.35,90.35,0,0,0-11-6.79,90.17,90.17,0,0,0-11.88-4.95,96.77,96.77,0,0,0-12.33-2.92,92.6,92.6,0,0,0-25-.53c-16,1.71-31.54,7.44-45.56,15.22-14.06,8.07-26.45,18.08-38,28.93,12.24-9.9,25.45-18.8,39.68-25.29s29.5-10.57,44.75-11,30.3,3.2,42.73,10.91,22,19.47,25.69,32.56Z" transform="translate(-5.69 -10.27)"/><path class="cls-2" d="M144.73,65l30.52,26.86,8.09-39.93Z" transform="translate(-5.69 -10.27)"/><path class="cls-5" d="M174.55,50.53a61.9,61.9,0,0,0-11.63-17.29,40.62,40.62,0,0,0-3.64-3.66l-4-3.43a102.39,102.39,0,0,0-8.76-6l-2.19-1.33L142,17.6a55,55,0,0,0-14.9-5.43l-2.58-.54c-.83-.13-1.76-.42-2.59-.55l-5.1-.66a33.08,33.08,0,0,0-5.18-.1c-1.69,0-3.38,0-5.23.16,1.76.42,3.41.68,5,.93s3.3.52,5.06.94a63.32,63.32,0,0,1,9.83,2.8,90.23,90.23,0,0,1,18.23,8.34A93.47,93.47,0,0,1,160.77,35.3,140.7,140.7,0,0,1,174.55,50.53Z" transform="translate(-5.69 -10.27)"/><path class="cls-5" d="M16.21,60.47A176.35,176.35,0,0,1,33.42,49.38,141,141,0,0,1,51.62,40l4.66-1.94,4.78-1.78c1.5-.61,3.12-1.06,4.9-1.63a45.37,45.37,0,0,1,4.85-1.35C77.28,31.5,84,30.73,91,30c-1.64-.26-3.45-.4-5.25-.54-.83-.13-1.81-.15-2.63-.27H80.45c-1.69,0-3.53.15-5.22.16l-5.32.72A79,79,0,0,0,49.83,36.2,105.25,105.25,0,0,0,31.61,46.57,90.44,90.44,0,0,0,16.21,60.47Z" transform="translate(-5.69 -10.27)"/></g></g></svg>